<?xml version="1.0" encoding="utf-8"?>
<!-- Generator: Adobe Illustrator 17.0.0, SVG Export Plug-In . SVG Version: 6.00 Build 0)  -->
<!DOCTYPE svg PUBLIC "-//W3C//DTD SVG 1.1//EN" "http://www.w3.org/Graphics/SVG/1.1/DTD/svg11.dtd">
<svg version="1.1"
	 id="Calque_1" xmlns:sodipodi="http://sodipodi.sourceforge.net/DTD/sodipodi-0.dtd" xmlns:svg="http://www.w3.org/2000/svg" xmlns:rdf="http://www.w3.org/1999/02/22-rdf-syntax-ns#" xmlns:inkscape="http://www.inkscape.org/namespaces/inkscape" xmlns:dc="http://purl.org/dc/elements/1.1/" xmlns:cc="http://creativecommons.org/ns#"
	 xmlns="http://www.w3.org/2000/svg" xmlns:xlink="http://www.w3.org/1999/xlink" x="0px" y="0px" width="23.652px"
	 height="23.637px" viewBox="7.664 2.58 23.652 23.637" enable-background="new 7.664 2.58 23.652 23.637" xml:space="preserve">
<g transform="translate(0,-952.36218)">
	<path d="M19.437,954.945c-0.297,0.033-0.519,0.286-0.513,0.585v10.656H8.268c-0.018-0.001-0.036-0.001-0.054,0
		c-0.318,0.015-0.564,0.285-0.549,0.603s0.285,0.564,0.603,0.549h10.656v10.656c-0.004,0.318,0.25,0.58,0.568,0.584
		c0.318,0.005,0.58-0.25,0.584-0.568c0-0.005,0-0.011,0-0.016v-10.656h10.656c0.318,0.004,0.58-0.25,0.584-0.568
		c0.004-0.318-0.25-0.58-0.568-0.584c-0.005,0-0.011,0-0.016,0H20.076V955.53c0.007-0.318-0.245-0.581-0.564-0.588
		C19.487,954.941,19.462,954.942,19.437,954.945z"/>
</g>
</svg>
